<?xml version="1.0" encoding="UTF-8"?>
<svg id="_レイヤー_1" data-name="レイヤー_1" xmlns="http://www.w3.org/2000/svg" version="1.1" viewBox="0 0 24 24">
  <!-- Generator: Adobe Illustrator 30.2.1, SVG Export Plug-In . SVG Version: 2.1.1 Build 1)  -->
  <defs>
    <style>
      .st0 {
        fill: #fff;
      }
    </style>
  </defs>
  <path class="st0" d="M19.36,9.86c.35,0,.63.28.63.63s-.28.63-.63.63h-1.75v1.12h1.75c.35,0,.63.28.63.63s-.28.63-.63.63h-2.39c-.34,0-.63-.28-.63-.63v-4.77c0-.34.28-.63.63-.63h2.39c.35,0,.63.28.63.63s-.28.63-.63.63h-1.75v1.12h1.75ZM15.51,12.88c0,.27-.17.51-.43.6-.06.02-.13.03-.2.03-.21,0-.39-.09-.51-.25l-2.44-3.32v2.94c0,.34-.28.63-.63.63s-.63-.28-.63-.63v-4.77c0-.27.17-.51.43-.6.06-.02.14-.03.19-.03.19,0,.38.1.49.25l2.46,3.33v-2.96c0-.34.28-.63.63-.63s.63.28.63.63v4.77ZM9.77,12.88c0,.34-.28.63-.63.63s-.63-.28-.63-.63v-4.77c0-.34.28-.63.63-.63s.63.28.63.63c0,0,0,4.77,0,4.77ZM7.3,13.51h-2.39c-.34,0-.63-.28-.63-.63v-4.77c0-.34.28-.63.63-.63s.63.28.63.63v4.14h1.76c.35,0,.63.28.63.63s-.28.63-.63.63M24,10.31C24,4.94,18.61.57,12,.57S0,4.94,0,10.31c0,4.81,4.27,8.84,10.03,9.61.39.08.92.26,1.06.59.12.3.08.77.04,1.08l-.16,1.02c-.05.3-.24,1.19,1.05.65,1.29-.54,6.92-4.08,9.44-6.98,1.72-1.89,2.55-3.82,2.55-5.97"/>
</svg>